<?xml version="1.0" encoding="UTF-8"?>
<svg id="Layer_2" data-name="Layer 2" xmlns="http://www.w3.org/2000/svg" viewBox="0 0 83.88 48.8">
  <defs>
    <style>
      .cls-1 {
        fill: #231f20;
        stroke-width: 0px;
      }
    </style>
  </defs>
  <g id="Layer_1-2" data-name="Layer 1">
    <g>
      <path class="cls-1" d="m31.5,35.93H13.78l-4.61,11.99H0L18.67.88h7.88l18.67,47.04h-9.11l-4.61-11.99Zm-8.93-23.73c-1.64,4.92-3.11,9.03-4.4,12.34l-1.61,4.19h12.16l-1.61-4.19c-1.28-3.33-2.74-7.45-4.4-12.34h-.14Z"/>
      <path class="cls-1" d="m75.02,34.42c0-1.2-.29-2.16-.88-2.9s-1.38-1.34-2.39-1.81c-1.01-.47-2.14-.85-3.39-1.14-1.25-.29-2.57-.58-3.96-.86-1.83-.4-3.57-.87-5.24-1.42-1.66-.55-3.13-1.31-4.39-2.29-1.27-.97-2.27-2.21-3.02-3.71-.75-1.5-1.12-3.38-1.12-5.62,0-2.48.43-4.65,1.3-6.49.87-1.84,2.04-3.36,3.53-4.57,1.49-1.21,3.23-2.11,5.24-2.71s4.26-.9,6.77-.9,5.03.25,7.56.74,4.71,1.12,6.54,1.9v7.38c-2.44-.96-4.78-1.66-7.01-2.09-2.24-.43-4.34-.65-6.31-.65-2.84,0-5.02.52-6.56,1.55-1.54,1.03-2.3,2.58-2.3,4.64,0,1.2.25,2.18.76,2.95s1.19,1.41,2.06,1.92c.87.5,1.86.91,2.99,1.21,1.12.3,2.32.59,3.59.84,1.99.42,3.9.91,5.71,1.46,1.82.55,3.43,1.32,4.83,2.3s2.52,2.27,3.34,3.85,1.23,3.6,1.23,6.06-.47,4.72-1.41,6.57c-.94,1.85-2.27,3.38-3.99,4.59-1.72,1.21-3.81,2.1-6.28,2.69s-5.16.88-8.09.88c-2.55,0-5.07-.25-7.54-.76s-4.53-1.21-6.17-2.13v-7.28c2.32,1.01,4.58,1.74,6.79,2.2s4.48.69,6.82.69c1.36,0,2.7-.11,4.01-.33,1.31-.22,2.49-.6,3.53-1.14,1.04-.54,1.88-1.27,2.51-2.2.63-.93.95-2.07.95-3.43Z"/>
    </g>
  </g>
</svg>